<svg id="Layer_2" data-name="Layer 2" xmlns="http://www.w3.org/2000/svg" viewBox="0 0 56 67.77"><defs><style>.cls-1{fill:#ffe6e1;}.cls-1,.cls-2{stroke:#e8453f;}.cls-2{fill:none;}.cls-3,.cls-4{fill:#e8453f;}.cls-3{stroke:#ffe6e1;}</style></defs><title>elixir-icon</title><path class="cls-1" d="M77.63,70.82a3.75,3.75,0,0,1-3.78,3.77H42.15a3.76,3.76,0,0,1-3.78-3.77L46.22,61H69.78Z" transform="translate(-29.5 -16.92)"/><polygon class="cls-2" points="40.27 44.07 16.73 44.07 23.97 35.02 23.97 25.96 33.03 25.96 33.03 35.02 40.27 44.07"/><line class="cls-2" x1="21.71" y1="25.96" x2="35.29" y2="25.96"/><circle class="cls-2" cx="17.18" cy="19.17" r="2.26"/><circle class="cls-2" cx="28.25" cy="11.66" r="3.77"/><circle class="cls-1" cx="36.58" cy="19.92" r="1.51"/><circle class="cls-2" cx="39.18" cy="3.17" r="2.26"/><ellipse class="cls-1" cx="17.18" cy="4.17" rx="3.77" ry="3.67"/><line class="cls-2" x1="24" y1="67.27" x2="32" y2="67.27"/><line class="cls-2" x1="12" y1="67.27" x2="20" y2="67.27"/><line class="cls-2" y1="67.27" x2="8" y2="67.27"/><line class="cls-2" x1="36" y1="67.27" x2="44" y2="67.27"/><line class="cls-2" x1="48" y1="67.27" x2="56" y2="67.27"/><circle class="cls-3" cx="32.58" cy="52.92" r="1.51"/><circle class="cls-3" cx="24.58" cy="48.92" r="1.51"/><circle class="cls-4" cx="27.58" cy="51.92" r="1.51"/></svg>