<svg width="364" height="366" viewBox="0 0 364 366" fill="none" xmlns="http://www.w3.org/2000/svg">
<path d="M337.513 3L219.637 120.876C211.673 128.841 198.929 130.434 189.372 124.062L136.805 84.2389C127.248 77.8673 116.097 77.8673 108.133 85.8319L3 170.257" stroke="#EC1115" stroke-width="4.5" stroke-linecap="round" stroke-linejoin="round"/>
<path d="M241.938 3H337.513V98.5752" stroke="#EC1115" stroke-width="4.5" stroke-linecap="round" stroke-linejoin="round"/>
<path d="M3.00049 276.982C3.00049 270.611 7.77925 264.239 15.7439 264.239H133.62C139.992 264.239 146.363 269.018 146.363 276.982V300.876C146.363 307.248 141.585 313.619 133.62 313.619H14.1509C7.77925 313.619 3.00039 308.965 3.00039 301L3.00049 276.982Z" fill="#FDE7E8" fill-opacity="0.82" stroke="#EC1115" stroke-width="4.5" stroke-linecap="round" stroke-linejoin="round"/>
<path d="M23.4075 227.743C23.4075 221.372 28.1862 215 36.1508 215H154.027C160.399 215 166.77 219.779 166.77 227.743V251.637C166.77 258.009 161.992 264.381 154.027 264.381H34.5579C28.1862 264.381 23.4074 259.726 23.4074 251.761L23.4075 227.743Z" stroke="#EC1115" stroke-width="4.5" stroke-linecap="round" stroke-linejoin="round"/>
<path d="M29.4075 326.743C29.4075 320.372 34.1862 314 42.1508 314H160.027C166.399 314 172.77 318.779 172.77 326.743V350.637C172.77 357.009 167.992 363.381 160.027 363.381H40.5579C34.1862 363.381 29.4074 358.726 29.4074 350.761L29.4075 326.743Z" stroke="#EC1115" stroke-width="4.5" stroke-linecap="round" stroke-linejoin="round"/>
<path d="M191 276.982C191 270.611 195.779 264.239 203.743 264.239H321.619C327.991 264.239 334.363 269.018 334.363 276.982V300.876C334.363 307.248 329.584 313.619 321.619 313.619H202.15C195.779 313.619 191 308.965 191 301L191 276.982Z" stroke="#EC1115" stroke-width="4.5" stroke-linecap="round" stroke-linejoin="round"/>
<path d="M211.407 227.743C211.407 221.372 216.186 215 224.15 215H342.026C348.398 215 354.77 219.779 354.77 227.743V251.637C354.77 258.009 349.991 264.381 342.026 264.381H222.557C216.186 264.381 211.407 259.726 211.407 251.761L211.407 227.743Z" fill="#FDE7E8" fill-opacity="0.82" stroke="#EC1115" stroke-width="4.5" stroke-linecap="round" stroke-linejoin="round"/>
<path d="M212 178.743C212 172.372 216.779 166 224.743 166H342.619C348.991 166 355.363 170.779 355.363 178.743V202.637C355.363 209.009 350.584 215.381 342.619 215.381H223.15C216.779 215.381 212 210.726 212 202.761L212 178.743Z" fill="#FDE7E8" fill-opacity="0.82" stroke="#EC1115" stroke-width="4.5" stroke-linecap="round" stroke-linejoin="round"/>
<path d="M217.407 326.743C217.407 320.372 222.186 314 230.15 314H348.026C354.398 314 360.77 318.779 360.77 326.743V350.637C360.77 357.009 355.991 363.381 348.026 363.381H228.557C222.186 363.381 217.407 358.726 217.407 350.761L217.407 326.743Z" stroke="#EC1115" stroke-width="4.5" stroke-linecap="round" stroke-linejoin="round"/>
</svg>
