<svg width="383" height="383" viewBox="0 0 383 383" fill="none" xmlns="http://www.w3.org/2000/svg">
<path fill-rule="evenodd" clip-rule="evenodd" d="M268.998 237.17C296.634 228.212 315.254 202.35 314.984 173.3C314.566 149.313 304.766 126.445 287.684 109.6C286.64 118.123 282.168 125.852 275.299 131.004C268.43 136.155 259.758 138.285 251.284 136.9C227.422 116.84 219.964 83.2781 233.084 55C176.203 55 139.803 88.5608 132.984 136.9C115.579 138.717 99.7123 126.818 96.5836 109.6C50.9138 148.427 61.9672 219.322 106.157 237.206" fill="#FDEBEB"/>
<path d="M268.998 237.17C296.634 228.212 315.254 202.35 314.984 173.3C314.566 149.313 304.766 126.445 287.684 109.6C286.64 118.123 282.168 125.852 275.299 131.004C268.43 136.155 259.758 138.285 251.284 136.9C227.422 116.84 219.964 83.2781 233.084 55C176.203 55 139.803 88.5608 132.984 136.9C115.579 138.717 99.7123 126.818 96.5836 109.6C50.9138 148.427 61.9672 219.322 106.157 237.206" stroke="#EC1115" stroke-width="3" stroke-linecap="round" stroke-linejoin="round"/>
<path fill-rule="evenodd" clip-rule="evenodd" d="M187.583 328C232.815 328 269.483 291.332 269.483 246.1C269.483 200.868 232.815 164.2 187.583 164.2C142.351 164.2 105.683 200.868 105.683 246.1C105.683 291.332 142.351 328 187.583 328Z" fill="white" stroke="#EC1115" stroke-width="3" stroke-linecap="round" stroke-linejoin="round"/>
<path d="M155.794 233.581L131.224 233.581" stroke="#EC1115" stroke-width="4.5" stroke-linecap="round"/>
<path d="M155.794 244.33L123.546 244.33" stroke="#EC1115" stroke-width="4.5" stroke-linecap="round"/>
<path d="M155.794 255.08H136.598" stroke="#EC1115" stroke-width="4.5" stroke-linecap="round"/>
<path d="M190.252 253.329H196.591V267.275C196.591 274.977 190.914 281.221 183.913 281.221C176.911 281.221 171.234 274.977 171.234 267.275V225.437C171.234 217.735 176.911 211.491 183.913 211.491H196.591" stroke="#EC1115" stroke-width="4.5" stroke-linecap="round" stroke-linejoin="round"/>
<path fill-rule="evenodd" clip-rule="evenodd" d="M223.532 211.491C213.904 211.491 206.099 219.296 206.099 228.923V263.788C206.099 273.416 213.904 281.221 223.532 281.221C233.159 281.221 240.964 273.416 240.964 263.788V228.923C240.964 219.296 233.159 211.491 223.532 211.491Z" stroke="#EC1115" stroke-width="4.5" stroke-linecap="round" stroke-linejoin="round"/>
<circle cx="42.4575" cy="295.533" r="7.79097" stroke="#EC1115" stroke-width="3"/>
<path d="M333.138 286.441L314.159 305.42" stroke="#EC1115" stroke-width="3" stroke-linejoin="bevel"/>
<path d="M333.138 305.42L314.159 286.441" stroke="#EC1115" stroke-width="3" stroke-linejoin="bevel"/>
<path d="M61.6353 64.4896L42.6561 83.4687" stroke="#EC1115" stroke-width="3" stroke-linejoin="bevel"/>
<path d="M61.6353 83.4688L42.6561 64.4896" stroke="#EC1115" stroke-width="3" stroke-linejoin="bevel"/>
<circle cx="333.575" cy="73.5819" r="7.79097" stroke="#EC1115" stroke-width="3"/>
<path d="M29.6331 191.466L10.6539 210.445" stroke="#EC1115" stroke-width="3" stroke-linejoin="bevel"/>
<path d="M29.6331 210.445L10.6539 191.466" stroke="#EC1115" stroke-width="3" stroke-linejoin="bevel"/>
<circle cx="364.545" cy="200.559" r="7.79097" stroke="#EC1115" stroke-width="3"/>
</svg>
