<svg xmlns="http://www.w3.org/2000/svg" width="123" height="74" viewBox="0 0 123 74">
    <g fill="none" fill-rule="evenodd">
        <path stroke="#E8423C" stroke-linecap="round" d="M54.335 53.52c0 1.948-1.405 3.526-3.138 3.526H33.942c-1.733 0-3.138-1.578-3.138-3.525V20.028c0-1.948 1.405-3.526 3.138-3.526h17.255c1.733 0 3.138 1.578 3.138 3.526V53.52z"/>
        <path fill="#FEF8F8" d="M53.591 49.274H31.544v-25.58h22.047z"/>
        <path stroke="#E8423C" stroke-linecap="round" d="M54.335 22.954h-23.53M54.335 49.995h-23.53"/>
        <path fill="#E73932" d="M42.501 51.758a1.5 1.5 0 1 0-.001 2.999 1.5 1.5 0 0 0 .001-3"/>
        <path stroke="#E8423C" stroke-linecap="round" d="M38.648 20.028h7.843"/>
        <g transform="rotate(90 59.977 61.454)">
            <ellipse cx="34.805" cy="13.269" fill="#E73932" rx="2.4" ry="2.398"/>
            <ellipse cx="10.801" cy="43.24" fill="#E73932" rx="2.4" ry="2.398"/>
            <path stroke="#E73932" stroke-linecap="round" stroke-width="2" d="M11.868 43.913L.015 34.726M69.475 39.717L57.623 30.53M34.627 15.003L34.839.02"/>
            <ellipse cx="58.808" cy="31.252" fill="#E73932" rx="2.4" ry="2.398"/>
            <path stroke="#E73932" stroke-linecap="round" stroke-width="2" d="M71.26 111.645l-11.852-9.186"/>
            <ellipse cx="60.486" cy="103.642" fill="#E73932" rx="2.4" ry="2.398"/>
            <g fill="#E73932" transform="translate(22.203 51.032)">
                <ellipse cx="12.602" cy="16.184" rx="2.4" ry="2.398"/>
                <path d="M21.299 9.143c-.088 0-.264 0-.352-.088a11.43 11.43 0 0 0-16.194 0 .426.426 0 0 1-.616 0 .425.425 0 0 1 0-.615 12.28 12.28 0 0 1 17.426 0 .425.425 0 0 1 0 .615c-.088.088-.176.088-.264.088z"/>
                <path d="M24.995 6.33c-.088 0-.264 0-.352-.088C18.13-.264 7.481-.264.968 6.242a.426.426 0 0 1-.616 0 .425.425 0 0 1 0-.616c6.865-6.857 18.043-6.857 24.907 0a.425.425 0 0 1 0 .616c0 .088-.088.088-.264.088zM17.514 12.044c-.088 0-.264 0-.352-.088-2.376-2.374-6.337-2.374-8.713 0a.426.426 0 0 1-.616 0c-.176-.176-.088-.527.088-.703 2.728-2.725 7.217-2.725 9.945 0a.425.425 0 0 1 0 .615c-.088.088-.176.176-.352.176z"/>
            </g>
            <g fill="#E73932" transform="matrix(1 0 0 -1 0 121.762)">
                <ellipse cx="21.603" cy="31.169" rx="2.4" ry="2.398"/>
                <path d="M30.3 24.128c-.088 0-.264 0-.352-.088a11.43 11.43 0 0 0-16.194 0 .426.426 0 0 1-.616 0 .425.425 0 0 1 0-.615 12.28 12.28 0 0 1 17.426 0 .425.425 0 0 1 0 .615c-.088.088-.176.088-.264.088z"/>
                <path d="M33.997 21.315c-.088 0-.264 0-.352-.088-6.513-6.506-17.163-6.506-23.676 0a.426.426 0 0 1-.616 0 .425.425 0 0 1 0-.615c6.865-6.858 18.043-6.858 24.908 0a.425.425 0 0 1 0 .615c0 .088-.088.088-.264.088z"/>
                <path d="M37.506 16.54c-.115 0-.346 0-.462-.115-8.54-8.53-22.503-8.53-31.042 0a.558.558 0 0 1-.808 0 .557.557 0 0 1 0-.807c9.001-8.99 23.657-8.99 32.658 0 .23.231.23.577 0 .807 0 .116-.115.116-.346.116z"/>
                <path d="M41.565 10.24c-.147 0-.44 0-.588-.147-10.868-10.856-28.64-10.856-39.509 0a.71.71 0 0 1-1.028 0 .709.709 0 0 1 0-1.027c11.456-11.443 30.11-11.443 41.565 0a.709.709 0 0 1 0 1.027c0 .147-.146.147-.44.147zM26.516 27.03c-.088 0-.264 0-.352-.089-2.377-2.373-6.337-2.373-8.714 0a.426.426 0 0 1-.616 0c-.176-.176-.088-.527.088-.703 2.729-2.725 7.217-2.725 9.946 0a.425.425 0 0 1 0 .615c-.088.088-.176.176-.352.176z"/>
            </g>
        </g>
    </g>
</svg>
