<svg xmlns="http://www.w3.org/2000/svg" width="86" height="77" viewBox="0 0 86 77">
    <g fill="none" fill-rule="evenodd">
        <path fill="#FFF" d="M48.88 63.92a2.76 2.76 0 0 0-.188-4.424c.633-1.457-.553-3.078-2.157-2.879a3.797 3.797 0 0 0-3.542-2.434 3.796 3.796 0 0 0-3.78 3.47 3.452 3.452 0 0 0-3.125 3.435"/>
        <path fill="#FEF8F8" stroke="#E73932" stroke-linecap="round" stroke-linejoin="round" d="M63.082 63.83a2.76 2.76 0 0 0-.188-4.424c.633-1.457-.553-3.078-2.156-2.879a3.797 3.797 0 0 0-3.542-2.434 3.796 3.796 0 0 0-3.781 3.47 3.452 3.452 0 0 0-3.124 3.435"/>
        <path fill="#FFF" d="M24.748 62.46a3.274 3.274 0 0 1-1.75-.266 4.533 4.533 0 0 1-3.73 3.018 4.533 4.533 0 0 1-4.35-2.026 3.277 3.277 0 0 1-1.634.682 3.3 3.3 0 0 1-.804-6.55 3.41 3.41 0 0 1 .467-.021 2.01 2.01 0 0 1-.108-.44 2.062 2.062 0 1 1 4.094-.502c.008.062.002.12.005.18a4.52 4.52 0 0 1 4.727.732 3.286 3.286 0 0 1 2.28-1.357 3.3 3.3 0 0 1 .803 6.55z"/>
        <path fill="#FEF8F8" stroke="#E73932" stroke-linecap="round" stroke-linejoin="round" d="M30.754 65.078a2.76 2.76 0 0 1 .188-4.424c-.633-1.457.553-3.078 2.157-2.879a3.797 3.797 0 0 1 3.542-2.434 3.796 3.796 0 0 1 3.78 3.47 3.452 3.452 0 0 1 3.125 3.435"/>
        <path stroke="#E73932" stroke-linecap="round" stroke-linejoin="round" d="M18.705 66.122a2.76 2.76 0 0 0-.188-4.424c.633-1.457-.553-3.078-2.157-2.88-.548-1.422-1.818-2.972-4.66-2.41-2.843.563-2.662 3.446-2.662 3.446s-1.177-.514-2.121.28C5.973 60.93 6.489 62 6.489 62s-4.4 1.091-4.4 6.3c0 5.207 5.819 7.045 5.819 7.045h23.125l34.799.283s.518-.183.758-.283c6.967-2.9 4.877-8.641 2.424-10.696-2.453-2.055-6.034-.67-6.034-.67s-.745-3.43-5.022-3.43-5.237 4.912-5.237 4.912-.657-1.846-2.687-1.846-2.97 1.846-2.97 1.846-.447-3.461-3.987-3.764c-3.54-.302-4.788 2.902-4.788 2.902s-1.577-2.6-4.4-.62"/>
        <path fill="#FFF" stroke="#E73932" stroke-linecap="round" stroke-linejoin="round" d="M52.972 64.975c.633-1.456-.553-3.077-2.157-2.878a3.796 3.796 0 0 0-7.322 1.035 3.451 3.451 0 0 0 .329 6.888h7.595a2.762 2.762 0 0 0 1.555-5.045z"/>
        <path fill="#FFF" stroke="#E73932" stroke-linejoin="round" d="M32.916 70.402a3.274 3.274 0 0 1-1.75-.268 4.533 4.533 0 0 1-3.73 3.018 4.533 4.533 0 0 1-4.35-2.026 3.277 3.277 0 0 1-1.634.683 3.3 3.3 0 0 1-.804-6.55 3.41 3.41 0 0 1 .466-.021 2.01 2.01 0 0 1-.107-.44 2.062 2.062 0 1 1 4.094-.502c.008.061.002.12.004.18a4.52 4.52 0 0 1 4.727.732 3.286 3.286 0 0 1 2.28-1.357 3.3 3.3 0 0 1 .804 6.55z"/>
        <path stroke="#E73932" stroke-linecap="round" stroke-linejoin="round" d="M32.495 24.057S50.912 5.59 52.101 4.402c1.785-1.785 8.924-2.974 8.924-2.974s-1.19 7.137-2.975 8.922L38.42 29.98l-5.924-5.923zM34.851 21.677L40.8 27.6"/>
        <path stroke="#E74039" stroke-linecap="round" stroke-linejoin="round" d="M47.342 21.06c0 1.19 0 5.946-.594 7.73-.377 1.131-1.564 2.755-2.381 3.572l-5.948 5.948 1.102-9.432M41.394 15.11c-1.19 0-5.999-.051-7.783.543-1.13.379-2.706 1.616-3.521 2.43l-5.948 5.949 9.518-1.164"/>
        <path fill="#E73932" d="M29.297 31.09c1.19 1.19.693 2.876-.595 4.166-1.643 1.641-9.518 3.594-9.518 3.594s1.927-7.9 3.57-9.543c1.306-1.307 2.974-1.785 4.164-.595"/>
        <path fill="#FFE6E1" d="M29.297 35.533c1.19 1.19.693 2.875-.595 4.165-1.643 1.641-9.518 3.594-9.518 3.594s1.927-7.9 3.57-9.543c1.306-1.307 2.974-1.785 4.164-.595"/>
        <path stroke="#E73932" stroke-linecap="round" stroke-linejoin="round" d="M34.85 29.98c1.19 1.19.693 2.876-.595 4.166-1.643 1.641-9.518 3.594-9.518 3.594s1.927-7.901 3.57-9.544c1.306-1.307 2.974-1.784 4.164-.595"/>
        <path fill="#E74039" d="M10.321 8.931l-.605 1.817 1.21 1.21-1.816-.202-1.009 1.817-.453-1.968-1.968-.454 1.816-1.009-.202-1.816 1.21 1.21zM4.846 32.375l-.605 1.816 1.21 1.211-1.816-.202-1.009 1.817-.453-1.968-1.968-.454 1.816-1.009-.202-1.816 1.21 1.21zM34.854 2.138l-.605 1.816 1.21 1.21-1.816-.201-1.008 1.816-.454-1.968-1.968-.454 1.816-1.008-.202-1.817 1.211 1.211zM62.987 26.749l-.605 1.816 1.21 1.21-1.816-.201-1.009 1.816-.454-1.968-1.967-.454 1.816-1.008-.202-1.817 1.21 1.211zM84.555 9.566l-.605 1.816 1.21 1.211-1.816-.202-1.008 1.817-.454-1.968-1.968-.454 1.816-1.009-.202-1.816 1.211 1.21zM79.406 36.967l-.812 2.435 1.623 1.623-2.435-.27-1.352 2.434-.608-2.638-2.638-.608 2.434-1.353-.27-2.434 1.623 1.623z"/>
    </g>
</svg>
