<?xml version="1.0" encoding="UTF-8" standalone="no"?>
<!DOCTYPE svg PUBLIC "-//W3C//DTD SVG 1.1//EN" "http://www.w3.org/Graphics/SVG/1.1/DTD/svg11.dtd">
<svg width="100%" height="100%" viewBox="0 0 85 100" version="1.1" xmlns="http://www.w3.org/2000/svg" xmlns:xlink="http://www.w3.org/1999/xlink" xml:space="preserve" style="fill-rule:evenodd;clip-rule:evenodd;stroke-linecap:round;stroke-linejoin:round;">
    <g transform="matrix(1,0,0,1,-0.373388,-0.225252)">
        <g transform="matrix(1,0,0,1,-654.362,-400.576)">
            <g id="ilu_ROR.2e..-Copy" transform="matrix(1.10526,0,0,1.10526,651.046,388.418)">
                <g id="diament" transform="matrix(1,0,0,1,21.6516,50.2234)">
                    <path id="Stroke.2e..-6316" d="M19.437,38.812L0,11.813L8.451,0L30.424,0L38.874,11.813L19.437,38.812Z" style="fill:none;stroke:rgb(231,57,50);stroke-width:1px;"/>
                    <path id="Stroke.2e..-6315" d="M38.02,11.549L0.546,11.549" style="fill:none;stroke:rgb(231,57,50);stroke-width:1px;"/>
                    <path id="Stroke.2e..-6317" d="M11.831,11.813L19.437,0L27.043,11.813L19.437,38.812L11.831,11.813Z" style="fill:none;stroke:rgb(231,57,50);stroke-width:1px;"/>
                    <path id="Stroke.2e..-6318" d="M8.451,0L11.831,11.813" style="fill:none;stroke:rgb(231,57,50);stroke-width:1px;"/>
                    <path id="Stroke.2e..-6319" d="M30.424,0L27.043,11.813" style="fill:none;stroke:rgb(231,57,50);stroke-width:1px;"/>
                </g>
                <g id="dymek_1" transform="matrix(1,0,0,1,21.3074,20.1534)">
                    <path id="Stroke.2e..-210" d="M27.048,4.164C25.649,1.757 22.87,0.116 19.665,0.116C16.459,0.116 13.68,1.757 12.281,4.164" style="fill:none;stroke:rgb(231,57,50);stroke-width:1px;"/>
                    <path id="Stroke.2e..-211" d="M15.871,14.51C17.92,15.541 21.408,15.541 23.459,14.51" style="fill:none;stroke:rgb(231,57,50);stroke-width:1px;"/>
                    <path id="Stroke.2e..-212" d="M15.118,4.82C11.824,3.233 7.283,4.651 6.807,7.378C7.458,7.77 7.943,8.396 8.155,9.143" style="fill:none;stroke:rgb(231,57,50);stroke-width:1px;"/>
                    <path id="Stroke.2e..-213" d="M6.807,7.378C4.761,6.146 2.212,7.632 2.212,9.965C2.212,12.397 4.93,13.814 6.926,12.488C8.052,15.62 13.751,15.829 15.87,14.51" style="fill:none;stroke:rgb(231,57,50);stroke-width:1px;"/>
                    <path id="Stroke.2e..-214" d="M31.403,9.326C31.666,8.827 32.058,8.411 32.542,8.124C32.923,4.98 27.817,3.078 24.204,4.824" style="fill:none;stroke:rgb(231,57,50);stroke-width:1px;"/>
                    <path id="Stroke.2e..-215" d="M23.459,14.51C25.302,15.658 30.462,15.767 32.143,13.037C34.132,14.699 37.117,13.279 37.117,10.723C37.117,8.41 34.599,6.907 32.542,8.124" style="fill:none;stroke:rgb(231,57,50);stroke-width:1px;"/>
                    <path id="Stroke.2e..-216" d="M22.018,24.992C24.064,26.224 26.614,24.738 26.614,22.405C26.614,19.973 23.896,18.556 21.899,19.882" style="fill:none;stroke:rgb(231,57,50);stroke-width:1px;"/>
                    <path id="Stroke.2e..-217" d="M17.311,24.992C15.265,26.224 12.716,24.738 12.716,22.405C12.716,19.973 15.434,18.556 17.43,19.882" style="fill:none;stroke:rgb(231,57,50);stroke-width:1px;"/>
                    <path id="Stroke.2e..-217.2e..-Copy" d="M2.393,23.806C0.074,23.232 -0.677,20.382 0.976,18.732C2.698,17.013 5.624,17.93 6.096,20.276" style="fill:none;stroke:rgb(231,57,50);stroke-width:1px;"/>
                    <path id="Stroke.2e..-217.2e..-Copy.2e..-2" d="M5.737,22.42C5.104,21.086 6.131,19.587 7.534,19.714C8.997,19.846 9.706,21.606 8.804,22.771" style="fill:none;stroke:rgb(231,57,50);stroke-width:1px;"/>
                    <path id="Stroke.2e..-218" d="M16.105,14.818C17.56,16.319 17.56,17.07 17.56,20.073" style="fill:none;stroke:rgb(231,57,50);stroke-width:1px;"/>
                    <path id="Stroke.2e..-219" d="M23.382,14.379C21.927,15.88 21.927,16.631 21.927,19.634" style="fill:none;stroke:rgb(231,57,50);stroke-width:1px;"/>
                </g>
                <g id="dymek_2" transform="matrix(0.819152,-0.573576,0.573576,0.819152,38.9448,30.322)">
                    <path id="Stroke.2e..-530" d="M5.107,30.372L9.579,31.404" style="fill:none;stroke:rgb(231,57,50);stroke-width:1px;"/>
                    <path id="Stroke.2e..-530.2e..-Copy" d="M1.215,20.432L4.877,17.677" style="fill:none;stroke:rgb(231,57,50);stroke-width:1px;"/>
                    <path id="Stroke.2e..-531" d="M2.46,34.613L7.045,36.134" style="fill:none;stroke:rgb(231,57,50);stroke-width:1px;"/>
                    <path id="Stroke.2e..-532" d="M5.296,27.087L10.129,27.015" style="fill:none;stroke:rgb(231,57,50);stroke-width:1px;"/>
                    <path id="Stroke.2e..-533" d="M10.36,38.198C12.563,38.198 14.377,36.441 13.417,34.396C15.312,34.095 16.474,32.565 16.474,30.594C16.474,28.677 15.236,27.155 13.417,26.791C14.006,24.759 12.318,22.989 10.36,22.989" style="fill:none;stroke:rgb(231,57,50);stroke-width:1px;"/>
                    <path id="Stroke.2e..-533.2e..-Copy" d="M15.577,27.734C17.78,27.734 19.594,25.977 18.634,23.932C20.529,23.631 21.691,22.1 21.691,20.129C21.691,18.212 20.453,16.691 18.634,16.327C19.223,14.295 17.535,12.525 15.577,12.525" style="fill:none;stroke:rgb(231,57,50);stroke-width:1px;"/>
                    <path id="Stroke.2e..-533.2e..-Copy.2e..-2" d="M18.056,13.38C19.831,12.501 20.632,10.272 19.088,8.901C20.503,7.887 20.863,6.111 20.121,4.422C19.399,2.778 17.828,1.968 16.225,2.382C15.934,0.405 13.907,-0.438 12.329,0.343" style="fill:none;stroke:rgb(231,57,50);stroke-width:1px;"/>
                    <path id="Stroke.2e..-533.2e..-Copy.2e..-3" d="M7.07,25.161C8.961,24.093 9.715,21.611 7.956,20.209C9.445,19.016 9.743,17.056 8.842,15.257C7.966,13.507 6.207,12.718 4.479,13.267C4.055,11.127 1.797,10.329 0.117,11.278" style="fill:none;stroke:rgb(231,57,50);stroke-width:1px;"/>
                </g>
                <g id="dymek_3" transform="matrix(-0.819152,-0.573576,-0.573576,0.819152,82.719,35.0821)">
                    <path id="Stroke.2e..-5301" d="M37.069,48.434L41.674,48.434" style="fill:none;stroke:rgb(231,57,50);stroke-width:1px;"/>
                    <path id="Stroke.2e..-5311" d="M37.069,51.85L41.674,53.372" style="fill:none;stroke:rgb(231,57,50);stroke-width:1px;"/>
                    <path id="Stroke.2e..-531.2e..-Copy" d="M54.288,51.854L58.866,53.456" style="fill:none;stroke:rgb(231,57,50);stroke-width:1px;"/>
                    <path id="Stroke.2e..-531.2e..-Copy.2e..-2" d="M55.702,21.276L59.7,18.545" style="fill:none;stroke:rgb(231,57,50);stroke-width:1px;"/>
                    <path id="Stroke.2e..-531.2e..-Copy.2e..-3" d="M39.103,4.703L41.489,0.511" style="fill:none;stroke:rgb(231,57,50);stroke-width:1px;"/>
                    <path id="Stroke.2e..-531.2e..-Copy.2e..-4" d="M3.386,9.737L0.427,5.921" style="fill:none;stroke:rgb(231,57,50);stroke-width:1px;"/>
                    <path id="Stroke.2e..-5321" d="M37.069,45.761L41.674,44.238" style="fill:none;stroke:rgb(231,57,50);stroke-width:1px;"/>
                    <path id="Stroke.2e..-5331" d="M44.745,56.416C46.957,56.416 48.778,54.658 47.815,52.611C49.718,52.31 50.885,50.778 50.885,48.805C50.885,46.886 49.642,45.363 47.815,44.999C48.406,42.965 46.711,41.194 44.745,41.194" style="fill:none;stroke:rgb(231,57,50);stroke-width:1px;"/>
                    <path id="Stroke.2e..-533.2e..-Copy.2e..-4" d="M49.984,45.943C52.196,45.943 54.018,44.184 53.054,42.137C54.957,41.836 56.124,40.304 56.124,38.331C56.124,36.412 54.881,34.889 53.054,34.526C53.645,32.491 51.992,30.51 49.984,30.887" style="fill:none;stroke:rgb(231,57,50);stroke-width:1px;"/>
                </g>
            </g>
        </g>
        <g transform="matrix(1,0,0,1,-654.362,-400.576)">
            <g transform="matrix(1,0,0,1,704.951,481.678)">
                <path d="M15.056,9.16L15.056,14.368C15.056,15.334 14.704,16.219 14.116,16.911C13.319,17.844 12.149,18.379 10.922,18.374L8.165,18.374C6.75,18.374 5.433,17.671 4.674,16.514C3.25,14.344 1.483,10.764 1.483,10.764C1.205,10.385 1.251,9.854 1.591,9.529C1.961,9.175 2.543,9.154 2.938,9.479L5.135,11.965L5.135,3.953C5.135,3.289 5.69,2.751 6.375,2.751C7.06,2.751 7.615,3.289 7.615,3.953L7.615,8.76L7.603,2.158C7.603,2.158 7.856,1.149 8.867,1.149C9.877,1.149 10.033,2.032 10.033,2.032L10.13,8.716L10.13,3.797C10.13,3.797 10.256,2.751 11.267,2.751C12.277,2.751 12.53,3.671 12.53,3.671L12.53,9.977L12.53,6.193C12.53,6.193 12.656,5.185 13.793,5.185C14.93,5.185 15.056,6.193 15.056,6.193L15.056,14.368" style="fill:none;stroke:rgb(231,57,50);stroke-width:1px;"/>
            </g>
        </g>
        <g transform="matrix(1,0,0,1,-654.362,-400.576)">
            <g transform="matrix(1,0,0,1,671.773,481.678)">
                <path d="M1.165,8.768L1.165,13.976C1.165,14.941 1.517,15.826 2.104,16.518C2.902,17.451 4.071,17.987 5.299,17.982L8.056,17.982C9.471,17.982 10.788,17.279 11.547,16.122C12.97,13.951 14.738,10.371 14.738,10.371C15.015,9.992 14.968,9.461 14.629,9.137C14.259,8.784 13.678,8.762 13.283,9.087L11.086,11.572L11.086,3.561C11.086,2.897 10.531,2.359 9.846,2.359C9.161,2.359 8.606,2.897 8.606,3.561L8.606,8.368L8.617,1.765C8.617,1.765 8.365,0.757 7.354,0.757C6.344,0.757 6.187,1.639 6.187,1.639L6.091,8.323L6.091,3.405C6.091,3.405 5.965,2.359 4.954,2.359C3.944,2.359 3.691,3.279 3.691,3.279L3.691,9.584L3.691,5.801C3.691,5.801 3.565,4.792 2.428,4.792C1.291,4.792 1.165,5.801 1.165,5.801L1.165,13.976" style="fill:none;stroke:rgb(231,59,52);stroke-width:1px;"/>
            </g>
        </g>
    </g>
</svg>
