<svg xmlns="http://www.w3.org/2000/svg" width="123" height="72" viewBox="0 0 123 72">
    <g fill="none" fill-rule="evenodd">
        <path fill="#FFF" stroke="#E73932" stroke-linecap="round" stroke-linejoin="round" d="M122.036 58.343c0 3.058-2.34 5.539-5.225 5.539H47.144c-2.886 0-5.225-2.481-5.225-5.54V6.659c0-3.06 2.34-5.539 5.225-5.539h69.667c2.886 0 5.225 2.48 5.225 5.54v51.684z"/>
        <path fill="#FFF" stroke="#E73932" stroke-linecap="round" stroke-linejoin="round" d="M116.81 63.882H47.145c-2.886 0-5.225-2.481-5.225-5.54v-8.509h80.117v8.51c0 3.058-2.34 5.539-5.225 5.539z"/>
        <path stroke="#E73932" stroke-linecap="round" stroke-linejoin="round" d="M57.594 70.855h48.767"/>
        <path stroke="#E8423C" stroke-linecap="round" stroke-linejoin="round" d="M81.978 63.881v6.974"/>
        <path fill="#E73932" stroke="#E73932" d="M83.72 56.908a1.742 1.742 0 0 1-3.483 0 1.74 1.74 0 1 1 3.482 0z"/>
        <path stroke="#E73932" d="M41.92 49.934h80.116"/>
        <g>
            <path fill="#FFF" stroke="#E8423C" stroke-linecap="round" d="M48.77 66.983a4.213 4.213 0 0 1-4.212 4.216H17.182a4.215 4.215 0 0 1-4.212-4.216V26.93a4.214 4.214 0 0 1 4.212-4.216h27.376a4.213 4.213 0 0 1 4.212 4.216v40.052z"/>
            <path fill="#E73932" d="M30.87 64.875a2.106 2.106 0 0 0-2.106 2.108 2.107 2.107 0 1 0 2.106-2.108"/>
            <path fill="#FFF" stroke="#E8423C" stroke-linecap="round" stroke-linejoin="round" d="M44.558 62.767H17.182V29.039h27.376z"/>
            <path fill="#FFE6E1" d="M30.87 24.823a1.053 1.053 0 1 0 1.053 1.054c0-.583-.472-1.054-1.053-1.054"/>
        </g>
        <g>
            <path fill="#FFF" stroke="#E8423C" stroke-linecap="round" d="M21.47 65.391c0 1.508-1.22 2.73-2.726 2.73H3.747a2.728 2.728 0 0 1-2.726-2.73v-25.93c0-1.507 1.22-2.729 2.726-2.729h14.997a2.728 2.728 0 0 1 2.727 2.73v25.93z"/>
            <path fill="#FFF" d="M20.872 62.062H1.617V42.79h19.255z"/>
            <path stroke="#E8423C" stroke-linecap="round" d="M21.47 42.191H1.02M21.47 62.662H1.02"/>
            <path fill="#E73932" d="M11.246 64.027a1.364 1.364 0 1 0 .001 2.728 1.364 1.364 0 0 0-.001-2.728"/>
            <path stroke="#E8423C" stroke-linecap="round" d="M7.837 39.462h6.817"/>
        </g>
    </g>
</svg>
