<svg id="Layer_1" data-name="Layer 1" xmlns="http://www.w3.org/2000/svg" viewBox="0 0 95.23 94.27"><defs><style>.cls-1,.cls-5{fill:#ffe6e1;}.cls-1,.cls-2,.cls-3,.cls-5{stroke:#e8453f;}.cls-2{fill:none;}.cls-3,.cls-4{fill:#fff;}.cls-5{fill-rule:evenodd;}</style></defs><title>icon-node-js</title><circle class="cls-1" cx="6.96" cy="88.27" r="5.5"/><circle class="cls-1" cx="87.73" cy="7.5" r="7"/><circle class="cls-2" cx="6.96" cy="22.04" r="6.46"/><circle class="cls-1" cx="53.81" cy="41.42" r="16.15"/><line class="cls-1" x1="48.42" y1="59.49" x2="48.42" y2="83.81"/><line class="cls-1" x1="11.53" y1="83.7" x2="42.42" y2="52.81"/><line class="cls-1" x1="68.39" y1="48.37" x2="81.91" y2="54.8"/><line class="cls-1" x1="83.18" y1="12.05" x2="65.22" y2="30.01"/><line class="cls-1" x1="12.93" y1="24.51" x2="38.88" y2="35.25"/><circle class="cls-3" cx="48.42" cy="88.27" r="4"/><circle class="cls-1" cx="84.73" cy="55.58" r="3.5"/><polygon class="cls-3" points="17.77 26.02 47.9 8.59 78.03 26.02 78.03 60.64 47.9 78.18 17.67 60.9 17.77 26.02"/><polygon class="cls-3" points="25.86 30.55 47.88 17.67 69.91 30.55 69.91 56.14 47.88 69.1 25.78 56.33 25.86 30.55"/><rect class="cls-4" x="21.69" y="35.25" width="12.13" height="18.96"/><rect class="cls-4" x="40.74" y="60.04" width="9.72" height="11.38"/><rect class="cls-4" x="66.99" y="26.89" width="5.21" height="9.69"/><rect class="cls-4" x="63.99" y="35.42" width="9.21" height="16.61"/><rect class="cls-4" x="47.26" y="29.62" width="17.98" height="12.44" transform="translate(102.85 57.57) rotate(180)"/><path class="cls-5" d="M44.84,57a.45.45,0,0,0-.23-.39l-3.75-2.13a.36.36,0,0,0-.2-.06h0a.42.42,0,0,0-.21.06l-3.74,2.13a.45.45,0,0,0-.23.39V62.7a.23.23,0,0,0,.11.2.24.24,0,0,0,.23,0L39,61.64a.47.47,0,0,0,.23-.39V58.57a.44.44,0,0,1,.22-.39l.95-.54a.46.46,0,0,1,.23-.06.4.4,0,0,1,.22.06l1,.54a.45.45,0,0,1,.23.39v2.68a.46.46,0,0,0,.22.39l2.23,1.26a.24.24,0,0,0,.23,0,.23.23,0,0,0,.11-.2Z" transform="translate(-9.65 -14.11)"/><path class="cls-5" d="M64.86,49.09a.24.24,0,0,0-.23,0,.21.21,0,0,0-.11.19V55a.13.13,0,0,1-.08.13.15.15,0,0,1-.16,0l-.93-.53a.47.47,0,0,0-.46,0L59.15,56.7a.44.44,0,0,0-.23.38v4.28a.43.43,0,0,0,.23.38l3.74,2.14a.47.47,0,0,0,.46,0l3.74-2.14a.43.43,0,0,0,.23-.38V50.71a.46.46,0,0,0-.23-.4ZM64.51,60a.11.11,0,0,1-.06.1l-1.28.73a.13.13,0,0,1-.12,0l-1.28-.73a.11.11,0,0,1-.06-.1V58.49a.11.11,0,0,1,.06-.1l1.28-.73a.13.13,0,0,1,.12,0l1.28.73a.11.11,0,0,1,.06.1Z" transform="translate(-9.65 -14.11)"/><path class="cls-5" d="M78.33,58.45a.45.45,0,0,0,.23-.39V57a.45.45,0,0,0-.23-.39L74.61,54.5a.45.45,0,0,0-.45,0l-3.75,2.14a.44.44,0,0,0-.22.39V61.3a.44.44,0,0,0,.22.39l3.73,2.09a.43.43,0,0,0,.44,0l2.25-1.23a.23.23,0,0,0,.12-.2.21.21,0,0,0-.12-.19L73.07,60a.22.22,0,0,1-.12-.19V58.49a.21.21,0,0,1,.12-.19l1.17-.67a.22.22,0,0,1,.22,0l1.18.67a.21.21,0,0,1,.11.19v1a.23.23,0,0,0,.11.2.24.24,0,0,0,.23,0Z" transform="translate(-9.65 -14.11)"/><polygon class="cls-2" points="38.15 42.7 42.23 40.37 46.31 42.7 46.31 47.34 42.23 49.69 38.14 47.37 38.15 42.7"/><rect class="cls-4" x="47.74" y="58.04" width="9.72" height="11.38"/></svg>