<?xml version="1.0" encoding="UTF-8"?>
<svg width="107px" height="77px" viewBox="0 0 107 77" version="1.1" xmlns="http://www.w3.org/2000/svg" xmlns:xlink="http://www.w3.org/1999/xlink">
    <!-- Generator: Sketch 46.2 (44496) - http://www.bohemiancoding.com/sketch -->
    <title>Group 11</title>
    <desc>Created with Sketch.</desc>
    <defs></defs>
    <g id="Landing-page" stroke="none" stroke-width="1" fill="none" fill-rule="evenodd">
        <g id="Group-11" transform="translate(-8.000000, 1.000000)">
            <g id="Group-7" transform="translate(34.000000, 7.000000)">
                <path d="M24.3332213,1.12260256 L48.4948454,43.1475302 L0.171597145,43.1475302 L24.3332213,1.12260256 Z M24.3332213,17.8839284 L9.78814692,43.1475302 L38.8781639,43.1475302 L24.3332213,17.8839284 Z" id="Fill-1" fill="#FFFFFF" transform="translate(24.333221, 22.135066) rotate(-180.000000) translate(-24.333221, -22.135066) "></path>
                <polygon id="Fill-2" stroke="#E8453F" fill="#FFE6E1" transform="translate(24.333287, 13.142218) rotate(-180.000000) translate(-24.333287, -13.142218) " points="18.7236623 25.7740185 9.78827858 25.7740185 24.3333529 0.510416667 38.8782956 25.7740185 29.9429557 25.7740185 24.3333529 16.0572963"></polygon>
                <polygon id="Path-2" stroke="#E8453F" points="0.505154639 0.510416667 18.6907216 0.510416667 24.2474227 9.953125 30.3092784 0.510416667 48.50186 0.510416667 24.2474227 42.109375"></polygon>
            </g>
            <path d="M83,7.5 L103.572708,7.5" id="Path-3" stroke="#E8453F"></path>
            <path d="M66,36.5 L86.5727079,36.5" id="Path-3" stroke="#E8453F"></path>
            <circle id="Oval-3" fill="#E8453F" cx="106.5" cy="7.5" r="2.5"></circle>
            <circle id="Oval-3" fill="#E8453F" cx="88.5" cy="36.5" r="2.5"></circle>
            <circle id="Oval-3" stroke="#E8453F" stroke-dasharray="3,3" transform="translate(106.629751, 7.629751) rotate(91.000000) translate(-106.629751, -7.629751) " cx="106.629751" cy="7.62975076" r="7.5"></circle>
            <circle id="Oval-3" fill="#E8453F" transform="translate(58.415064, 61.415064) rotate(-30.000000) translate(-58.415064, -61.415064) " cx="58.4150635" cy="61.4150635" r="2.5"></circle>
            <circle id="Oval-3" fill="#E8453F" transform="translate(23.415064, 44.415064) rotate(-30.000000) translate(-23.415064, -44.415064) " cx="23.4150635" cy="44.4150635" r="2.5"></circle>
            <path d="M58.5,49 L58.5,59.5475116" id="Line-3" stroke="#E8453F" stroke-linecap="square"></path>
            <g id="Group-10" transform="translate(48.000000, 65.000000)" stroke="#E8453F">
                <path d="M0,6 C2.77009712,8.47904237 6.51377113,10 10.6341446,10 L10.6341446,10 C14.6229627,10 18.2587518,8.5746143 21,6.23450457" id="Oval-6"></path>
                <path d="M3,3 C5.08524374,4.85739066 7.92358154,6 11.0512228,6 L11.0512228,6 C14.1279433,6 16.924704,4.89429313 19,3.09014955" id="Oval-6"></path>
                <path d="M6,0 C7.12917715,1.22977902 8.74640763,2 10.5426145,2 L10.5426145,2 C12.294108,2 13.8754249,1.26764822 15,0.0909801802" id="Oval-6"></path>
            </g>
            <g id="Group-6" transform="translate(28.131397, 41.722432) rotate(-30.000000) translate(-28.131397, -41.722432) translate(6.131397, 24.722432)" stroke="#E8453F" stroke-linecap="square">
                <path d="M43.5,16.5 L19.4899998,16.5" id="Line-2"></path>
                <path d="M16.6147367,8.14359354 L16.6147367,1.07252573 M22.9786977,10.7796325 L27.9786977,5.77963251 M22.9786977,23.5075546 L27.9786977,28.5075546 M16.6147367,26.1435935 L16.6147367,33.2146614 M10.2507757,23.5075546 L5.25077568,28.5075546 M7.61473671,17.1435935 L0.543668898,17.1435935 M10.2507757,10.7796325 L5.25077568,5.77963251" id="Line-5"></path>
            </g>
        </g>
    </g>
</svg>