<svg xmlns="http://www.w3.org/2000/svg" width="114" height="91" viewBox="0 0 114 91">
    <g fill="none" fill-rule="evenodd">
        <g transform="translate(75.372 26.175)">
            <path d="M18.517 30.141H.02v4.331C.02 36 1.125 37.24 2.486 37.24h13.565c1.361 0 2.466-1.24 2.466-2.767v-4.33zM8.49 12.288H.02v-4.33C.02 6.43 1.125 5.19 2.486 5.19H8.49v7.098z"/>
            <path stroke="#E73932" stroke-linecap="round" d="M18.618 21.97V33.78a3.376 3.376 0 0 1-3.374 3.375H3.432A3.376 3.376 0 0 1 .057 33.78V8.471a3.376 3.376 0 0 1 3.375-3.375h5.062M8.494 11.845H.057"/>
            <path stroke="#E73932" d="M18.618 30.406H.058"/>
            <path stroke="#E73932" stroke-linecap="round" d="M6.807 8.47h1.687"/>
            <path stroke="#E73932" d="M10.181 33.781a.844.844 0 0 1-1.687 0 .844.844 0 0 1 1.687 0z"/>
            <path d="M33.805 16.907a3.376 3.376 0 0 0 3.374-3.374V3.408A3.376 3.376 0 0 0 33.805.034H16.93a3.376 3.376 0 0 0-3.375 3.374v10.125a3.376 3.376 0 0 0 3.375 3.374h16.874z"/>
            <path stroke="#E73932" d="M33.805 16.907a3.376 3.376 0 0 0 3.374-3.374V3.408A3.376 3.376 0 0 0 33.805.034H16.93a3.376 3.376 0 0 0-3.375 3.374v10.125a3.376 3.376 0 0 0 3.375 3.374h16.874z"/>
            <path fill="#FFF" stroke="#E73932" stroke-linecap="round" d="M33.447 16.695L29.954 4.578l-4.517 7.909-4.515-1.708-3.6 5.916"/>
            <circle cx="20.911" cy="6.161" r="1.697" fill="#FFF" stroke="#E73932"/>
        </g>
        <path d="M20.683 34.786c0 1.069-2.773 3.207-2.773 3.207H1.245v-4.33c0-1.528 1.16-2.768 2.591-2.768h14.255c1.431 0 2.592 1.24 2.592 2.767v1.124zM20.683 57.258H1.245v4.331c0 1.528 1.16 2.767 2.591 2.767h14.255c1.431 0 2.592-1.24 2.592-2.767v-4.33z"/>
        <path stroke="#E73932" stroke-linecap="round" d="M20.676 41.228v20.037c0 1.598-1.16 2.895-2.591 2.895H3.83c-1.431 0-2.592-1.297-2.592-2.895V33.76c0-1.598 1.161-2.895 2.592-2.895h14.255c1.43 0 2.591 1.297 2.591 2.895v1.448"/>
        <path stroke="#E73932" d="M18.252 37.948H1.44M20.61 57.326H1.44"/>
        <path stroke="#E73932" stroke-linecap="round" d="M7.378 33.701h7.087"/>
        <path stroke="#E73932" d="M12.101 60.631a.709.709 0 0 1-1.417 0 .709.709 0 0 1 1.417 0zM11.868 50.001l-4.252 1.417 1.418-4.252 14.173-14.174a2.005 2.005 0 0 1 2.835 2.835L11.868 50.001zM9.034 47.166l2.834 2.835"/>
        <g>
            <path stroke="#E73932" d="M77.573 15.444a2.532 2.532 0 0 1-2.531 2.53H54.794a2.532 2.532 0 0 1-2.532-2.53V3.632a2.532 2.532 0 0 1 2.532-2.53h20.248a2.532 2.532 0 0 1 2.531 2.53v11.812z"/>
            <path stroke="#E73932" stroke-linecap="round" d="M74.198 5.32l-9.28 5.905-9.28-5.905M74.198 13.756l-6.63-4.218M55.637 13.756l6.63-4.218"/>
            <path d="M57.31 30.895H38.812v4.33c0 1.528 1.104 2.768 2.466 2.768h13.564c1.361 0 2.466-1.24 2.466-2.767v-4.33zM47.282 13.042h-8.47v-4.33c0-1.528 1.105-2.768 2.467-2.768h6.003v7.098z"/>
            <g stroke="#E73932">
                <path stroke-linecap="round" d="M57.325 23.037v11.812a3.376 3.376 0 0 1-3.375 3.374H42.138a3.376 3.376 0 0 1-3.374-3.374V9.539a3.376 3.376 0 0 1 3.374-3.376H47.2M47.2 12.913h-8.436"/>
                <path d="M57.325 31.003H38.764"/>
                <path stroke-linecap="round" d="M45.513 9.538H47.2"/>
                <path d="M48.888 34.849a.844.844 0 0 1-1.687 0 .844.844 0 0 1 1.687 0z"/>
            </g>
        </g>
        <g>
            <path d="M57.78 65.063H38.342v-4.331c0-1.528 1.16-2.767 2.592-2.767h14.254c1.431 0 2.592 1.24 2.592 2.767v4.33zM57.78 83.386H38.342v3.758c0 1.325 1.16 2.4 2.592 2.4h14.254c1.431 0 2.592-1.075 2.592-2.4v-3.758z"/>
            <path stroke="#E73932" d="M57.78 87.02c0 1.527-1.16 2.767-2.592 2.767H40.934c-1.431 0-2.592-1.24-2.592-2.767V60.732c0-1.528 1.16-2.767 2.592-2.767h14.254c1.431 0 2.592 1.24 2.592 2.767V87.02zM57.927 65.16H38.343M57.927 83.424H38.343"/>
            <path stroke="#E73932" stroke-linecap="round" d="M46.09 61.542h4.86"/>
            <path stroke="#E73932" d="M49.148 86.986a.865.865 0 0 1-1.73 0 .865.865 0 1 1 1.73 0z"/>
        </g>
    </g>
</svg>
