<svg width="303" height="366" viewBox="0 0 303 366" fill="none" xmlns="http://www.w3.org/2000/svg">
<path d="M270.475 313.598C286.943 313.598 300.141 300.278 300.141 283.932C300.141 267.464 286.822 254.266 270.475 254.266C254.008 254.266 240.81 267.585 240.81 283.932C240.689 300.278 254.008 313.598 270.475 313.598Z" fill="#FDE7E8" fill-opacity="0.82" stroke="#EC1115" stroke-width="4.5" stroke-linecap="round" stroke-linejoin="round"/>
<path d="M3 145.169V204.622C3 259.352 47.3171 303.669 102.048 303.669C156.778 303.669 201.095 259.352 201.095 204.622V145.169" stroke="#EC1115" stroke-width="4.5" stroke-linecap="round" stroke-linejoin="round"/>
<path d="M240.69 283.81C218.774 283.81 201.095 301.489 201.095 323.405C201.095 345.322 183.417 363 161.501 363H141.643C119.726 363 102.048 345.322 102.048 323.405V303.547" stroke="#EC1115" stroke-width="4.5" stroke-linecap="round" stroke-linejoin="round"/>
<path d="M28.7815 32.5543C28.7815 15.8069 41.5884 3 58.3358 3H146.999C163.746 3 176.553 15.8069 176.553 32.5543V195.103C176.553 211.851 163.746 224.657 146.999 224.657H58.3358C41.5884 224.657 28.7815 211.851 28.7815 195.103V32.5543V32.5543Z" stroke="#EC1115" stroke-width="4.5" stroke-linecap="round" stroke-linejoin="round"/>
<path d="M28.7815 180.326H176.553" stroke="#EC1115" stroke-width="4.5" stroke-linecap="round" stroke-linejoin="round"/>
<path d="M142.073 70.9749C142.073 67.0344 139.118 63.0938 134.192 63.0938H118.43V49.3018C118.43 44.3761 115.474 41.4206 110.548 41.4206H96.7565C91.8308 41.4206 88.8753 44.3761 88.8753 49.3018V64.0789H74.0982C70.1576 63.0938 67.2021 67.0344 67.2021 70.9749V85.7521C67.2021 89.6927 70.1576 93.6333 75.0833 93.6333H88.8753V108.41C88.8753 112.351 91.8308 116.292 96.7565 116.292H111.534C115.474 116.292 119.415 113.336 119.415 108.41V93.6333H134.192C138.133 93.6333 142.073 90.6778 142.073 85.7521V70.9749Z" fill="#FDE7E8" fill-opacity="0.82" stroke="#EC1115" stroke-width="4.5" stroke-linecap="round" stroke-linejoin="round"/>
<circle cx="104.321" cy="203.153" r="6.06525" fill="#EC1115"/>
</svg>
