<svg width="401" height="373" viewBox="0 0 401 373" fill="none" xmlns="http://www.w3.org/2000/svg">
<path d="M341.335 272.001C344.495 278.401 344.495 284.801 339.754 291.201C336.594 297.601 330.273 300.801 323.952 300.801H31.6056C25.2846 300.801 18.9636 297.601 15.8031 291.201C12.6426 284.801 12.6426 278.401 14.2228 272.001L36.3463 204.801H320.791L341.335 272.001Z" stroke="#EC1115" stroke-width="4.5" stroke-linecap="round" stroke-linejoin="round"/>
<path d="M297.088 12.7999C309.73 12.7999 320.792 23.9999 320.792 36.7999V204.801H36.3467V36.7999C36.3467 23.9999 47.4084 12.7999 60.0504 12.7999" stroke="#EC1115" stroke-width="4.5" stroke-linecap="round" stroke-linejoin="round"/>
<path d="M165.926 252.801H189.63" stroke="#EC1115" stroke-width="4.5" stroke-linecap="round" stroke-linejoin="round"/>
<path d="M107.458 64.0002V132.8C107.458 145.6 118.52 156.8 131.162 156.8H225.977C238.619 156.8 249.681 145.6 249.681 132.8V64.0002" fill="#FDE7E8" fill-opacity="0.82"/>
<path d="M107.458 64.0002V132.8C107.458 145.6 118.52 156.8 131.162 156.8H225.977C238.619 156.8 249.681 145.6 249.681 132.8V64.0002" stroke="#EC1115" stroke-width="4.5" stroke-linecap="round" stroke-linejoin="round"/>
<path d="M134.223 39.6001L107.556 64.3502H248.445L237.334 52.6502L204.445 22.9501L191.112 15.3001L176.889 13.05L164 15.3001L152.889 22.9501L134.223 39.6001Z" fill="#FDE7E8" fill-opacity="0.82"/>
<path d="M83.7537 84.8002L154.865 20.8C167.507 9.59995 188.05 9.59995 202.272 20.8L273.384 84.8002" stroke="#EC1115" stroke-width="4.5" stroke-linecap="round" stroke-linejoin="round"/>
<path d="M202.272 156.8H154.865V108.8C154.865 96.0001 165.926 84.8 178.568 84.8C191.21 84.8 202.272 96.0001 202.272 108.8V156.8Z" fill="white" stroke="#EC1115" stroke-width="4.5" stroke-linecap="round" stroke-linejoin="round"/>
<path d="M261.523 331.154L236.2 301.796C231.511 296.114 231.511 286.644 238.076 281.909C243.703 276.227 253.082 277.174 257.772 282.856L275.591 303.69V219.406C275.591 211.83 282.156 205.2 289.659 205.2C297.162 205.2 303.727 211.83 303.727 219.406V282.856H317.796C341.242 282.856 360 301.796 360 325.472V332.101" stroke="white" stroke-width="80.5" stroke-linecap="round" stroke-linejoin="round"/>
<path d="M261.523 331.154L236.2 301.796C231.511 296.114 231.511 286.644 238.076 281.909C243.703 276.227 253.082 277.174 257.772 282.856L275.591 303.69V219.406C275.591 211.83 282.156 205.2 289.659 205.2C297.162 205.2 303.727 211.83 303.727 219.406V282.856H317.796C341.242 282.856 360 301.796 360 325.472V332.101" stroke="#EC1115" stroke-width="4.5" stroke-linecap="round" stroke-linejoin="round"/>
</svg>
