<svg id="Layer_2" data-name="Layer 2" xmlns="http://www.w3.org/2000/svg" viewBox="0 0 67.47 63.77"><defs><style>.cls-1{fill:none;}.cls-1,.cls-2,.cls-3{stroke:#e8453f;}.cls-2{fill:#ffe6e1;}.cls-3{fill:#fff;}</style></defs><title>pwa-icon</title><rect class="cls-1" x="15.23" y="0.5" width="36.8" height="62.77" rx="5.41"/><line class="cls-1" x1="15.23" y1="11.32" x2="52.02" y2="11.32"/><line class="cls-1" x1="15.23" y1="52.45" x2="52.02" y2="52.45"/><line class="cls-1" x1="26.05" y1="6.99" x2="41.2" y2="6.99"/><circle class="cls-2" cx="33.63" cy="57.86" r="2.16"/><path class="cls-3" d="M73.13,65.5l1.92-4.84h5.52L78,53.32,81.23,45,90.63,70H83.7L82.09,65.5Z" transform="translate(-23.87 -25.62)"/><path class="cls-2" d="M67.22,70,77.28,45H70.61L63.73,61.15,58.84,45H53.72L48.46,61.15l-3.7-7.35L41.41,64.13,44.81,70h6.56l4.75-14.45L60.64,70Z" transform="translate(-23.87 -25.62)"/><path class="cls-3" d="M30.7,61.41h4.11A12,12,0,0,0,38.13,61l1.07-3.27,3-9.14a6.82,6.82,0,0,0-.77-1Q39.11,45,34.7,45H24.37V70H30.7Zm5.44-10.64a3.28,3.28,0,0,1,.89,2.4,3.53,3.53,0,0,1-.78,2.41,4.09,4.09,0,0,1-3.17,1H30.7v-6.7h2.39A4.21,4.21,0,0,1,36.14,50.77Z" transform="translate(-23.87 -25.62)"/></svg>