<svg width="400" height="420" viewBox="0 0 400 420" fill="none" xmlns="http://www.w3.org/2000/svg">
<path d="M384.615 107.473L17.5825 303.077" stroke="#EC1115" stroke-width="3"/>
<path d="M134.066 406.374L258.295 25.0959" stroke="#EC1115" stroke-width="3"/>
<path d="M28.572 54.7253L351.649 320.659" stroke="#EC1115" stroke-width="3"/>
<circle cx="198.901" cy="205.275" r="122.676" fill="white" stroke="#EC1115" stroke-width="3"/>
<path d="M199.667 211.332C203.929 211.332 207.384 207.877 207.384 203.615C207.384 199.353 203.929 195.897 199.667 195.897C195.405 195.897 191.95 199.353 191.95 203.615C191.95 207.877 195.405 211.332 199.667 211.332Z" fill="#ED1114" stroke="#ED1114" stroke-width="3" stroke-miterlimit="10"/>
<path d="M199.712 233.9C179.477 233.9 161.888 231.522 148.742 227.036C131.827 221.293 120.879 212.05 120.879 203.525C120.879 195.359 130.974 186.789 147.217 181.136C161.485 176.155 180.15 173.419 199.712 173.419C218.916 173.419 237.311 176.111 251.49 181.001C268.136 186.744 278.5 195.359 278.5 203.525C278.5 212.05 267.193 221.293 249.65 227.125C236.414 231.478 218.691 233.9 199.712 233.9ZM199.712 174.092C180.195 174.092 161.664 176.828 147.441 181.764C131.737 187.238 121.597 195.763 121.597 203.48C121.597 211.556 132.59 220.754 148.966 226.363C162.023 230.805 179.566 233.183 199.712 233.183C218.601 233.183 236.279 230.76 249.471 226.408C266.7 220.709 277.827 211.691 277.827 203.48C277.827 195.763 267.418 187.148 251.265 181.629C237.177 176.784 218.871 174.092 199.712 174.092Z" fill="#ED1114" stroke="#ED1114" stroke-width="3" stroke-miterlimit="10"/>
<path d="M166.51 273.384C164.132 273.384 161.978 272.891 160.183 271.859C153.094 267.776 150.716 254.764 153.947 237.849C156.773 222.998 163.728 205.454 173.464 188.539C183.066 171.893 194.552 157.311 205.904 147.44C219.185 135.864 231.837 131.243 238.926 135.281C246.33 139.543 248.663 153.991 244.939 172.073C242.112 185.712 235.337 202.314 225.87 218.735C215.775 236.234 204.917 250.322 194.462 259.475C184.322 268.449 174.092 273.384 166.51 273.384ZM233.094 134.608C226.049 134.608 216.313 139.409 206.397 148.023C195.135 157.849 183.649 172.342 174.092 188.943C164.356 205.813 157.446 223.267 154.62 238.028C151.524 254.36 153.812 267.417 160.542 271.276C167.542 275.314 181.002 270.378 194.059 258.982C204.423 249.918 215.236 235.875 225.331 218.421C234.754 202.044 241.529 185.533 244.311 171.938C247.99 154.17 245.746 139.992 238.612 135.909C237.042 135.012 235.202 134.608 233.094 134.608Z" fill="#ED1114" stroke="#ED1114" stroke-width="3" stroke-miterlimit="10"/>
<path d="M232.959 273.429C225.87 273.429 216.313 268.808 206.487 260.373C195.045 250.502 183.335 235.74 173.509 218.825C163.862 202.179 156.997 184.905 154.126 170.188C150.761 152.914 153.049 139.588 160.093 135.505C167.497 131.243 181.181 136.403 194.956 148.651C205.41 157.894 216.358 172.073 225.87 188.494C236.01 205.993 242.785 222.459 245.477 236.054C248.932 253.598 246.419 267.686 239.061 271.949C237.356 272.936 235.292 273.429 232.959 273.429ZM174.137 218.466C183.918 235.336 195.584 250.053 206.98 259.834C219.588 270.692 232.062 275.179 238.747 271.32C245.746 267.282 248.214 253.149 244.849 236.189C242.157 222.684 235.427 206.307 225.331 188.853C215.864 172.521 204.916 158.433 194.552 149.19C180.957 137.12 167.586 132.005 160.452 136.133C153.767 139.992 151.568 153.318 154.844 170.053C157.715 184.68 164.535 201.91 174.137 218.466Z" fill="#ED1114" stroke="#ED1114" stroke-width="3" stroke-miterlimit="10"/>
<circle cx="260.484" cy="16.4835" r="14.9835" fill="#FEF6F6" stroke="#EC1115" stroke-width="3"/>
<circle cx="16.4835" cy="304.176" r="14.9835" fill="white" stroke="#EC1115" stroke-width="3"/>
<circle cx="134.066" cy="406.374" r="11.6868" fill="white" stroke="#EC1115" stroke-width="3"/>
<circle cx="31.8681" cy="55.8242" r="8.39011" fill="#FEF6F6" stroke="#EC1115" stroke-width="3"/>
<circle cx="389.011" cy="105.275" r="9.48901" fill="white" stroke="#EC1115" stroke-width="3"/>
<circle cx="353.846" cy="322.857" r="9.48901" fill="#FEF6F6" stroke="#EC1115" stroke-width="3"/>
</svg>
