<?xml version="1.0" encoding="UTF-8"?>
<svg width="63px" height="59px" viewBox="0 0 63 59" version="1.1" xmlns="http://www.w3.org/2000/svg" xmlns:xlink="http://www.w3.org/1999/xlink">
    <!-- Generator: Sketch 48.2 (47327) - http://www.bohemiancoding.com/sketch -->
    <title>Group</title>
    <desc>Created with Sketch.</desc>
    <defs></defs>
    <g id="Projects_kropa" stroke="none" stroke-width="1" fill="none" fill-rule="evenodd" transform="translate(-687.000000, -423.000000)">
        <g id="Group-6" transform="translate(662.000000, 392.000000)" fill="#FFFFFF">
            <g id="Group" transform="translate(25.000000, 31.000000)">
                <path d="M39.8387097,58.7096774 L16.7741935,58.7096774 C13.2096774,58.7096774 10.483871,55.983871 10.483871,52.4193548 L10.483871,37.1129032 L0.209677419,26.8387097 C0,26.6290323 0,26.2096774 0,25.7903226 C0,25.3709677 0.629032258,25.1612903 1.0483871,25.1612903 L39.8387097,25.1612903 C43.4032258,25.1612903 46.1290323,27.8870968 46.1290323,31.4516129 L46.1290323,52.4193548 C46.1290323,55.983871 43.4032258,58.7096774 39.8387097,58.7096774 L39.8387097,58.7096774 Z M3.56451613,27.2580645 L12.1612903,35.8548387 C12.3709677,36.0645161 12.5806452,36.483871 12.5806452,36.6935484 L12.5806452,52.4193548 C12.5806452,54.7258065 14.4677419,56.6129032 16.7741935,56.6129032 L39.8387097,56.6129032 C42.1451613,56.6129032 44.0322581,54.7258065 44.0322581,52.4193548 L44.0322581,31.4516129 C44.0322581,29.1451613 42.1451613,27.2580645 39.8387097,27.2580645 L3.56451613,27.2580645 L3.56451613,27.2580645 Z" id="Shape"></path>
                <path d="M36.6935484,33.5483871 L19.9193548,33.5483871 C19.2903226,33.5483871 18.8709677,33.1290323 18.8709677,32.5 C18.8709677,31.8709677 19.2903226,31.4516129 19.9193548,31.4516129 L36.6935484,31.4516129 C37.3225806,31.4516129 37.7419355,31.8709677 37.7419355,32.5 C37.7419355,33.1290323 37.3225806,33.5483871 36.6935484,33.5483871 L36.6935484,33.5483871 Z" id="Shape"></path>
                <path d="M36.6935484,41.9354839 L19.9193548,41.9354839 C19.2903226,41.9354839 18.8709677,41.516129 18.8709677,40.8870968 C18.8709677,40.2580645 19.2903226,39.8387097 19.9193548,39.8387097 L36.6935484,39.8387097 C37.3225806,39.8387097 37.7419355,40.2580645 37.7419355,40.8870968 C37.7419355,41.516129 37.3225806,41.9354839 36.6935484,41.9354839 L36.6935484,41.9354839 Z" id="Shape"></path>
                <path d="M36.6935484,50.3225806 L19.9193548,50.3225806 C19.2903226,50.3225806 18.8709677,49.9032258 18.8709677,49.2741935 C18.8709677,48.6451613 19.2903226,48.2258065 19.9193548,48.2258065 L36.6935484,48.2258065 C37.3225806,48.2258065 37.7419355,48.6451613 37.7419355,49.2741935 C37.7419355,49.9032258 37.3225806,50.3225806 36.6935484,50.3225806 L36.6935484,50.3225806 Z" id="Shape"></path>
                <path d="M46.1290323,33.5483871 C45.5,33.5483871 45.0806452,33.1290323 45.0806452,32.5 C45.0806452,31.8709677 45.5,31.4516129 46.1290323,31.4516129 C48.4354839,31.4516129 50.3225806,29.5645161 50.3225806,27.2580645 L50.3225806,11.5322581 C50.3225806,11.3225806 50.5322581,10.9032258 50.5322581,10.6935484 L59.3387097,2.09677419 L20.9677419,2.09677419 C18.6612903,2.09677419 16.7741935,3.98387097 16.7741935,6.29032258 L16.7741935,26.2096774 C16.7741935,26.8387097 16.3548387,27.2580645 15.7258065,27.2580645 C15.0967742,27.2580645 14.6774194,26.8387097 14.6774194,26.2096774 L14.6774194,6.29032258 C14.6774194,2.72580645 17.4032258,0 20.9677419,0 L61.8548387,0 C62.2741935,0 62.6935484,0.209677419 62.9032258,0.629032258 C63.1129032,1.0483871 62.9032258,1.46774194 62.6935484,1.67741935 L52.4193548,11.9516129 L52.4193548,27.2580645 C52.4193548,30.8225806 49.6935484,33.5483871 46.1290323,33.5483871 L46.1290323,33.5483871 Z" id="Shape"></path>
                <path d="M42.983871,10.483871 L24.1129032,10.483871 C23.483871,10.483871 23.0645161,10.0645161 23.0645161,9.43548387 C23.0645161,8.80645161 23.483871,8.38709677 24.1129032,8.38709677 L42.983871,8.38709677 C43.6129032,8.38709677 44.0322581,8.80645161 44.0322581,9.43548387 C44.0322581,10.0645161 43.6129032,10.483871 42.983871,10.483871 L42.983871,10.483871 Z" id="Shape"></path>
                <path d="M42.983871,18.8709677 L24.1129032,18.8709677 C23.483871,18.8709677 23.0645161,18.4516129 23.0645161,17.8225806 C23.0645161,17.1935484 23.483871,16.7741935 24.1129032,16.7741935 L42.983871,16.7741935 C43.6129032,16.7741935 44.0322581,17.1935484 44.0322581,17.8225806 C44.0322581,18.4516129 43.6129032,18.8709677 42.983871,18.8709677 L42.983871,18.8709677 Z" id="Shape"></path>
            </g>
        </g>
    </g>
</svg>