<?xml version="1.0" encoding="UTF-8"?>
<svg width="16px" height="12px" viewBox="0 0 16 12" version="1.1" xmlns="http://www.w3.org/2000/svg" xmlns:xlink="http://www.w3.org/1999/xlink">
    <!-- Generator: Sketch 48.2 (47327) - http://www.bohemiancoding.com/sketch -->
    <title>arrow-right</title>
    <desc>Created with Sketch.</desc>
    <defs></defs>
    <g id="Projects_kropa" stroke="none" stroke-width="1" fill="none" fill-rule="evenodd" transform="translate(-749.000000, -1072.000000)">
        <g id="Group-3-Copy-3" transform="translate(562.000000, 661.000000)" fill="#277CDF" fill-rule="nonzero">
            <g id="Group-2" transform="translate(32.000000, 408.000000)">
                <g id="arrow-right" transform="translate(155.000000, 4.000000)">
                    <g id="Outline_Icons">
                        <path d="M14.2928932,5 L9.64644661,0.353553391 C9.45118446,0.158291245 9.45118446,-0.158291245 9.64644661,-0.353553391 C9.84170876,-0.548815536 10.1582912,-0.548815536 10.3535534,-0.353553391 L15.3535534,4.64644661 C15.5488155,4.84170876 15.5488155,5.15829124 15.3535534,5.35355339 L10.3535534,10.3535534 C10.1582912,10.5488155 9.84170876,10.5488155 9.64644661,10.3535534 C9.45118446,10.1582912 9.45118446,9.84170876 9.64644661,9.64644661 L14.2928932,5 Z" id="Shape"></path>
                        <path d="M14.5,4.5 C14.7761424,4.5 15,4.72385763 15,5 C15,5.27614237 14.7761424,5.5 14.5,5.5 L0.5,5.5 C0.223857625,5.5 0,5.27614237 0,5 C0,4.72385763 0.223857625,4.5 0.5,4.5 L14.5,4.5 Z" id="Shape"></path>
                    </g>
                </g>
            </g>
        </g>
    </g>
</svg>