<svg viewBox="0 0 413 488" xmlns="http://www.w3.org/2000/svg">
  <g fill="#1B1B1B" fill-rule="evenodd">
    <path d="M165.875 200.5a65.36 65.36 0 0 1-4.408 23.665c-32.604-16.475-54.967-50.264-54.967-89.29a99.807 99.807 0 0 1 5.81-33.651 99.265 99.265 0 0 1 27.309 7.335 71.637 71.637 0 0 0-4.994 26.316c0 24.465 12.233 46.059 30.907 59.037.218 2.168.343 4.362.343 6.588zm-20.588-89.303c32.604 16.476 54.963 50.277 54.963 89.303 0 55.229-44.771 100-100 100v-28.125c39.695 0 71.875-32.18 71.875-71.875 0-24.471-12.24-46.073-30.92-59.053a66.07 66.07 0 0 1-.33-6.572c0-8.35 1.567-16.332 4.412-23.678zm103.122 121.336c11.78 23.613 36.159 39.842 64.341 39.842V300.5c-41.142 0-76.476-24.849-91.826-60.354a105.443 105.443 0 0 0 27.485-7.613zm-6.812-42.227a65.232 65.232 0 0 1-28.84 9.887c.154-51.008 38.494-93.025 87.937-98.967 3.122 8.734 5.042 18.036 5.61 27.701-33.29 2.961-60.053 28.606-64.707 61.379zm36.044-45.226a65.173 65.173 0 0 1 28.855-9.902c-.164 55.089-44.869 99.697-99.996 99.697-1.89 0-3.767-.058-5.631-.161a105.877 105.877 0 0 0 5.444-27.969c.062 0 .124.005.187.005 36.229 0 66.184-26.81 71.141-61.67zM132.697 363.653l-9.797 22.806h-4.82l-9.744-22.806v22.806h-8.086v-36.23h10.937l9.329 22.91 9.382-22.91h10.884v36.23h-8.085v-22.806zm52.222 18.424c-3.881 3.676-8.658 5.514-14.333 5.514-5.675 0-10.452-1.838-14.332-5.514-3.881-3.675-5.821-8.247-5.821-13.716 0-5.467 1.94-10.04 5.821-13.715 3.88-3.676 8.657-5.514 14.332-5.514 5.675 0 10.452 1.838 14.333 5.514 3.88 3.675 5.821 8.248 5.821 13.715 0 5.469-1.941 10.041-5.821 13.716zm-2.911-13.689c0-3.32-1.098-6.153-3.295-8.496-2.196-2.344-4.896-3.516-8.099-3.516-3.204 0-5.904 1.172-8.1 3.516-2.197 2.343-3.295 5.176-3.295 8.496 0 3.321 1.098 6.144 3.295 8.469 2.196 2.327 4.896 3.49 8.1 3.49 3.203 0 5.903-1.163 8.099-3.49 2.197-2.325 3.295-5.148 3.295-8.469zm46.212-13.416c3.567 3.161 5.351 7.558 5.351 13.191 0 5.632-1.739 10.09-5.218 13.372-3.479 3.283-8.787 4.924-15.923 4.924h-12.792v-36.23h13.219c6.673 0 11.793 1.581 15.363 4.743zm-6.129 21.536c2.052-1.866 3.077-4.578 3.077-8.138 0-3.558-1.025-6.298-3.077-8.216-2.053-1.918-5.201-2.876-9.447-2.876h-4.657v22.029h5.299c3.818 0 6.752-.934 8.805-2.799zm30.889 1.398c1.381 1.677 3.241 2.515 5.579 2.515 2.337 0 4.187-.838 5.551-2.515 1.363-1.675 2.045-3.965 2.045-6.867v-20.775h8.287v21.034c0 5.253-1.487 9.287-4.462 12.103-2.974 2.817-6.783 4.224-11.421 4.224-4.641 0-8.456-1.416-11.45-4.25-2.993-2.833-4.489-6.859-4.489-12.077v-21.034h8.288v20.775c0 2.902.691 5.192 2.072 6.867zm41.767-20.571c-.791.656-1.186 1.524-1.186 2.606 0 1.082.483 1.942 1.45 2.58.966.638 3.197 1.392 6.695 2.26 3.496.869 6.211 2.173 8.145 3.91 1.932 1.738 2.899 4.274 2.899 7.607 0 3.334-1.239 6.037-3.717 8.111-2.477 2.075-5.738 3.112-9.779 3.112-5.834 0-11.089-2.18-15.763-6.542l4.904-6.064c3.97 3.511 7.643 5.266 11.017 5.266 1.511 0 2.697-.327 3.559-.985.861-.655 1.292-1.542 1.292-2.659 0-1.117-.457-2.003-1.371-2.66-.914-.655-2.724-1.32-5.43-1.994-4.288-1.029-7.425-2.367-9.41-4.016-1.987-1.649-2.979-4.237-2.979-7.766s1.256-6.25 3.77-8.165c2.511-1.915 5.648-2.873 9.41-2.873 2.459 0 4.92.425 7.38 1.277 2.46.851 4.604 2.056 6.431 3.617l-4.164 6.064c-3.199-2.447-6.503-3.67-9.911-3.67-1.371 0-2.451.328-3.242.984z"/>
  </g>
</svg>
