<svg id="Layer_1" data-name="Layer 1" xmlns="http://www.w3.org/2000/svg" viewBox="0 0 58 58"><defs><style>.cls-1{fill:none;stroke:#e8453f;}</style></defs><title>hr-tech-icon</title><path class="cls-1" d="M180.5,187v3.46l-6.58,1.74a3.55,3.55,0,0,0-2.42,3.22v1h14.87" transform="translate(-171 -171)"/><path class="cls-1" d="M187.5,187.13v3.37l6.79,1.74a3.4,3.4,0,0,1,2.21,3.26v1H183.85" transform="translate(-171 -171)"/><path class="cls-1" d="M191.67,179.75c0,4.55-3.38,8.25-7.56,8.25s-7.57-3.7-7.57-8.25,3.39-8.25,7.57-8.25S191.67,175.19,191.67,179.75Z" transform="translate(-171 -171)"/><path class="cls-1" d="M191.6,178.3c-1.27,1.27-4.87,1.2-6.23-1.33a7.24,7.24,0,0,1-8.66,1.09" transform="translate(-171 -171)"/><path class="cls-1" d="M212.5,187v3.48l-6.58,1.74a3.55,3.55,0,0,0-2.42,3.22v1h14.87" transform="translate(-171 -171)"/><path class="cls-1" d="M219.5,187.12v3.38l6.79,1.74a3.4,3.4,0,0,1,2.21,3.26v1H215.85" transform="translate(-171 -171)"/><path class="cls-1" d="M223.67,179.75c0,4.55-3.38,8.25-7.56,8.25s-7.57-3.7-7.57-8.25,3.39-8.25,7.57-8.25S223.67,175.19,223.67,179.75Z" transform="translate(-171 -171)"/><path class="cls-1" d="M223.6,178.3c-1.27,1.27-4.87,1.2-6.23-1.33a7.24,7.24,0,0,1-8.66,1.09" transform="translate(-171 -171)"/><path class="cls-1" d="M195.72,218.68v3.52L189.31,224a3.56,3.56,0,0,0-2.42,3.22v1.26h13.87" transform="translate(-171 -171)"/><path class="cls-1" d="M203.28,218.68v3.52l6.4,1.82a3.56,3.56,0,0,1,2.43,3.22v1.26H198.24" transform="translate(-171 -171)"/><path class="cls-1" d="M207.07,211.53c0,4.56-3.39,8.25-7.57,8.25s-7.57-3.69-7.57-8.25,3.39-8.25,7.57-8.25S207.07,207,207.07,211.53Z" transform="translate(-171 -171)"/><path class="cls-1" d="M207,210a4.27,4.27,0,0,1-6.19-1.26,7.25,7.25,0,0,1-8.66,1.08" transform="translate(-171 -171)"/><line class="cls-1" x1="8.33" y1="29.76" x2="14.63" y2="36.07"/><line class="cls-1" x1="48.67" y1="29.76" x2="42.37" y2="36.07"/></svg>