<?xml version="1.0" encoding="utf-8"?>
<!-- Generator: Adobe Illustrator 24.0.0, SVG Export Plug-In . SVG Version: 6.00 Build 0)  -->
<svg version="1.1"
	 id="svg2" inkscape:version="0.43" sodipodi:docbase="/home/sdeibel" sodipodi:docname="logo-python-inkscape.svg" sodipodi:version="0.32" xmlns:cc="http://web.resource.org/cc/" xmlns:dc="http://purl.org/dc/elements/1.1/" xmlns:inkscape="http://www.inkscape.org/namespaces/inkscape" xmlns:rdf="http://www.w3.org/1999/02/22-rdf-syntax-ns#" xmlns:sodipodi="http://inkscape.sourceforge.net/DTD/sodipodi-0.dtd" xmlns:svg="http://www.w3.org/2000/svg"
	 xmlns="http://www.w3.org/2000/svg" xmlns:xlink="http://www.w3.org/1999/xlink" x="0px" y="0px" viewBox="0 0 95 95"
	 style="enable-background:new 0 0 95 95;" xml:space="preserve">
<style type="text/css">
	.st0{fill:none;stroke:#EC1115;stroke-width:0.75;stroke-miterlimit:10;}
	.st1{fill:#FDE7E8;stroke:#EC1115;stroke-width:0.75;stroke-miterlimit:10;}
	.st2{fill:none;stroke:#EC1115;stroke-miterlimit:10;}
	.st3{fill:#FDE7E8;stroke:#EC1115;stroke-miterlimit:10;}
</style>
<sodipodi:namedview  bordercolor="#666666" borderopacity="1.0" gridtolerance="10.0" guidetolerance="10.0" height="40mm" id="base" inkscape:current-layer="svg2" inkscape:cx="250.73166" inkscape:cy="67.50975" inkscape:pageopacity="0.0" inkscape:pageshadow="2" inkscape:window-height="882" inkscape:window-width="1233" inkscape:window-x="0" inkscape:window-y="6" inkscape:zoom="2.1461642" objecttolerance="10.0" pagecolor="#ffffff" units="mm" width="210mm">
	</sodipodi:namedview>
<sodipodi:namedview  bordercolor="#666666" borderopacity="1.0" gridtolerance="10.0" guidetolerance="10.0" height="40mm" id="base" inkscape:current-layer="svg2" inkscape:cx="250.73166" inkscape:cy="67.50975" inkscape:pageopacity="0.0" inkscape:pageshadow="2" inkscape:window-height="882" inkscape:window-width="1233" inkscape:window-x="0" inkscape:window-y="6" inkscape:zoom="2.1461642" objecttolerance="10.0" pagecolor="#ffffff" units="mm" width="210mm">
	</sodipodi:namedview>
<g>
	<g>
		<path id="path1948" class="st0" d="M46.2,32.4c-1.5,0-2.9,0.1-4.2,0.4c-3.7,0.7-4.4,2-4.4,4.5v3.3h8.7v1.1h-8.7h-3.3
			c-2.5,0-4.7,1.5-5.4,4.4c-0.8,3.3-0.8,5.4,0,8.9c0.6,2.6,2.1,4.4,4.6,4.4h3v-4c0-2.9,2.5-5.4,5.4-5.4h8.7c2.4,0,4.4-2,4.4-4.4
			v-8.3c0-2.4-2-4.1-4.4-4.5C49.3,32.6,47.7,32.4,46.2,32.4z M41.5,35.1c0.9,0,1.6,0.7,1.6,1.7c0,0.9-0.7,1.7-1.6,1.7
			c-0.9,0-1.6-0.7-1.6-1.7C39.9,35.9,40.6,35.1,41.5,35.1z"/>
		<path id="path1950" class="st1" d="M58.3,43.9v3.9c0,3-2.5,5.5-5.4,5.5h-8.7c-2.4,0-4.4,2-4.4,4.4V66c0,2.4,2.1,3.7,4.4,4.4
			c2.8,0.8,5.4,1,8.7,0c2.2-0.6,4.4-1.9,4.4-4.4v-3.3h-8.7v-1.1h8.7h4.4c2.5,0,3.5-1.8,4.4-4.4c0.9-2.7,0.9-5.4,0-8.9
			c-0.6-2.5-1.8-4.4-4.4-4.4H58.3z M53.4,64.9c0.9,0,1.6,0.7,1.6,1.7c0,0.9-0.7,1.7-1.6,1.7c-0.9,0-1.6-0.7-1.6-1.7
			C51.8,65.6,52.5,64.9,53.4,64.9z"/>
	</g>
	<g>
		<path id="Shape_80_3_" class="st2" d="M85.6,48.5H95"/>
		<path id="Shape_81_3_" class="st2" d="M85.6,35.2l9.4-3.3"/>
		<path id="Shape_82_3_" class="st2" d="M83.8,61.8l9.4,3.3"/>
	</g>
	<g>
		<path id="Shape_80_2_" class="st2" d="M9.4,48.5H0"/>
		<path id="Shape_81_2_" class="st2" d="M9.4,35.2L0,31.9"/>
		<path id="Shape_82_2_" class="st2" d="M11.1,61.8l-9.4,3.3"/>
	</g>
	<g id="Social-Medias-Rewards-Rating__x2F__Rating__x2F__rating-star-badge">
		<g id="Group_69">
			<g id="rating-star-badge">
				<path id="Shape_238" class="st2" d="M81.6,41.5c0,24.7-14.4,45.9-34.1,50c-19.7-4.1-34.1-25.2-34.1-50V7h68.2V41.5z"/>
				<path id="Shape_239" class="st2" d="M13.4,23.9h68.2"/>
			</g>
		</g>
	</g>
	<g>
		<g id="Social-Medias-Rewards-Rating__x2F__Rating__x2F__rating-star">
			<g id="Group_83">
				<g id="rating-star">
					<path id="Shape_274" class="st3" d="M36.8,11.8l1.1,2.2l2.1,0.2c0.1,0,0.2,0.1,0.2,0.2c0,0.1,0,0.2-0.1,0.3l-1.7,1.7l0.6,2.3
						c0,0.1,0,0.2-0.1,0.3c-0.1,0.1-0.2,0.1-0.3,0l-2.1-1.1l-2.1,1c-0.1,0-0.2,0-0.3,0C34,18.8,34,18.7,34,18.6l0.6-2.3L33,14.6
						c-0.1-0.1-0.1-0.2-0.1-0.3s0.1-0.2,0.2-0.2l2.1-0.2l1.1-2.2c0-0.1,0.1-0.1,0.2-0.1C36.6,11.6,36.7,11.7,36.8,11.8z"/>
				</g>
			</g>
		</g>
		<g id="Social-Medias-Rewards-Rating__x2F__Rating__x2F__rating-star_2_">
			<g id="Group_83_2_">
				<g id="rating-star_2_">
					<path id="Shape_274_2_" class="st3" d="M58.7,11.8l1.1,2.2l2.1,0.2c0.1,0,0.2,0.1,0.2,0.2c0,0.1,0,0.2-0.1,0.3l-1.7,1.7
						l0.6,2.3c0,0.1,0,0.2-0.1,0.3c-0.1,0.1-0.2,0.1-0.3,0l-2.1-1.1l-2.1,1c-0.1,0-0.2,0-0.3,0c0-0.1,0-0.2,0-0.3l0.6-2.3l-1.7-1.7
						c-0.1-0.1-0.1-0.2-0.1-0.3s0.1-0.2,0.2-0.2l2.1-0.2l1.1-2.2c0-0.1,0.1-0.1,0.2-0.1C58.6,11.6,58.7,11.7,58.7,11.8z"/>
				</g>
			</g>
		</g>
		<g id="Social-Medias-Rewards-Rating__x2F__Rating__x2F__rating-star_1_">
			<g id="Group_83_1_">
				<g id="rating-star_1_">
					<path id="Shape_274_1_" class="st3" d="M47.7,11.8l1.1,2.2l2.1,0.2c0.1,0,0.2,0.1,0.2,0.2c0,0.1,0,0.2-0.1,0.3l-1.7,1.7
						l0.6,2.3c0,0.1,0,0.2-0.1,0.3c-0.1,0.1-0.2,0.1-0.3,0l-2.1-1.1l-2.1,1c-0.1,0-0.2,0-0.3,0c0-0.1,0-0.2,0-0.3l0.6-2.3l-1.7-1.7
						c-0.1-0.1-0.1-0.2-0.1-0.3s0.1-0.2,0.2-0.2l2.1-0.2l1.1-2.2c0-0.1,0.1-0.1,0.2-0.1C47.6,11.6,47.7,11.7,47.7,11.8z"/>
				</g>
			</g>
		</g>
	</g>
</g>
</svg>
